<?xml version="1.0" standalone="no"?><!DOCTYPE svg PUBLIC "-//W3C//DTD SVG 1.1//EN" "http://www.w3.org/Graphics/SVG/1.1/DTD/svg11.dtd"><svg t="1531443268666" class="icon" style="" viewBox="0 0 1024 1024" version="1.1" xmlns="http://www.w3.org/2000/svg" p-id="1791" xmlns:xlink="http://www.w3.org/1999/xlink" width="48" height="48"><defs><style type="text/css"></style></defs><path d="M512.268258 459.526901h51.923273v137.641928h-51.923273zM512.268258 786.658262h51.923273v137.641928h-51.923273zM96.880029 459.526901h51.923273v137.641928h-51.923273zM96.880029 786.658262h51.923273v137.641928h-51.923273zM226.615515 613.16499h51.923273v157.074247h-51.923273z" fill="#333333" p-id="1792"></path><path d="M259.614315 722.62345l-162.734286 63.565873 18.924473 48.253667 162.734286-63.565872zM259.614315 661.78828l-162.734286-63.565873 18.924473-48.253667 162.734286 63.564848zM382.531748 613.668741h51.923273v157.074248h-51.923273z" fill="#333333" p-id="1793"></path><path d="M401.457245 723.127202l162.734286 63.564848-18.924473 48.253668-162.73531-63.564849zM763.165213 360.501832l162.734286 63.565872-18.924472 48.253668-162.73531-63.565873zM401.457245 662.291007l162.734286-63.565872-18.924473-48.253668-162.73531 63.565873zM96.880029 459.526901h467.312525v51.817812H96.880029zM96.880029 875.095333h467.312525v51.817813H96.880029zM875.671781 148.616955H408.359256l50.301438-51.817813h467.311501z" fill="#333333" p-id="1794"></path><path d="M886.532132 409.124098L523.067176 771.071656l39.440063 15.586606 363.464956-361.946534zM790.761995 376.063865L429.442078 742.772489l39.440063 15.587631 361.319916-366.709649zM925.972195 558.03286L562.507239 927.200858v-51.817813l363.464956-369.167997zM925.972195 230.156111L562.507239 599.325132v-51.818837l363.464956-369.167997zM512.268258 96.799142L148.803302 459.526901h-51.923273L460.344985 96.799142zM927.656486 96.799142L564.191531 459.526901h-51.923273L875.733214 96.799142z" fill="#333333" p-id="1795"></path><path d="M874.048923 96.799142h51.923272V230.489897h-51.923272zM874.048923 424.711728h51.923272v133.690755h-51.923272z" fill="#333333" p-id="1796"></path></svg>