<?xml version="1.0" standalone="no"?><!DOCTYPE svg PUBLIC "-//W3C//DTD SVG 1.1//EN" "http://www.w3.org/Graphics/SVG/1.1/DTD/svg11.dtd"><svg t="1531443537265" class="icon" style="" viewBox="0 0 1024 1024" version="1.1" xmlns="http://www.w3.org/2000/svg" p-id="3352" xmlns:xlink="http://www.w3.org/1999/xlink" width="48" height="48"><defs><style type="text/css"></style></defs><path d="M926.719 212.258543L912.121851 226.955673c-24.295255 24.295255-63.587581 24.195274-87.882835 0l-87.882836-87.882836c-24.295255-24.295255-24.295255-63.587581 0-87.882835L750.953329 36.592853c48.490529-48.490529 127.175161-48.490529 175.665691 0.09998 48.59051 48.490529 48.59051 127.075181 0.09998 175.56571zM897.424722 65.887131c-32.393673-32.393673-82.183948-34.993165-111.278266-5.898847l-8.798282 8.798281c-14.597149 14.597149-13.197422 39.492287 2.899434 55.589143l58.588557 58.588557c16.196837 16.196837 41.091974 17.496583 55.589143 2.899433l8.798281-8.798281c29.194298-28.994337 26.494825-78.784612-5.798867-111.178286zM663.170475 183.064245L428.916227 417.218512c-8.098418 8.098418-8.098418 21.19586 0 29.294278l87.782855 87.782855c8.098418 8.098418 21.19586 8.098418 29.294279 0l234.154266-234.154266c8.098418-8.098418 21.19586-7.998438 29.194298 0 8.098418 8.098418 8.098418 21.19586 0 29.194298L575.4876 563.589924c-24.295255 24.295255-63.587581 24.195274-87.882835 0l-87.882836-87.882836c-24.295255-24.295255-24.295255-63.587581 0-87.882835l234.154267-234.154267c8.098418-8.098418 21.19586-7.998438 29.194298 0 8.198399 8.198399 8.198399 21.295841 0.099981 29.394259zM494.403437 627.077524c3.299356 13.497364-5.099004 27.59461-18.696349 31.593829L278.045694 716.060145c-0.499902 0.09998-0.899824 0.199961-1.399726 0.299941-0.899824 0.199961-1.799649 0.399922-2.799454 0.499902-0.799844 0.09998-1.599688 0.09998-2.399531 0.199961h-2.499512c-0.899824-0.09998-1.799649-0.199961-2.699473-0.399922-0.499902-0.09998-0.899824-0.09998-1.399726-0.199961-0.299941-0.09998-0.499902-0.199961-0.799844-0.299941-0.899824-0.199961-1.699668-0.599883-2.499512-0.899824l-2.09959-0.899825c-0.699863-0.399922-1.399727-0.799844-1.999609-1.299746-0.699863-0.399922-1.399727-0.899824-1.99961-1.399726-0.599883-0.499902-1.199766-1.099785-1.699668-1.599688-0.599883-0.599883-1.099785-1.099785-1.599687-1.699668-0.499902-0.599883-0.899824-1.299746-1.399727-1.999609-0.399922-0.699863-0.899824-1.299746-1.299746-1.99961s-0.599883-1.399727-0.899824-2.09959c-0.299941-0.799844-0.699863-1.699668-0.899824-2.499512-0.09998-0.299941-0.199961-0.499902-0.299942-0.799843-0.09998-0.499902-0.09998-0.899824-0.199961-1.399727-0.199961-0.899824-0.299941-1.799649-0.399922-2.699473-0.09998-0.799844-0.09998-1.599688 0-2.399531 0-0.799844 0.09998-1.599688 0.199961-2.399531 0.09998-0.899824 0.299941-1.799649 0.499903-2.699473 0.09998-0.499902 0.09998-0.899824 0.299941-1.399727l57.388791-197.661394c3.999219-13.597344 18.096466-21.995704 31.59383-18.696348 13.497364 3.299356 21.19586 16.99668 17.196641 30.694005l-44.991213 154.869752 154.869752-44.991213c13.597344-4.29916 27.294669 3.399336 30.594025 16.8967z m38.792423-483.605546H144.071861V883.727397l73.685608-73.685608c10.697911-10.697911 25.694981-13.597344 39.392306-9.898067 3.199375-0.799844 6.39875-1.299746 9.798087-1.299746h573.38801V409.619996c0-22.595587 18.296426-40.991994 40.991994-40.991994 22.595587 0 40.991994 18.296426 40.991993 40.991994V798.743995c0 45.291154-36.692833 81.884007-81.884007 81.884007H266.947862c-1.299746 0-2.599492-0.299941-3.899239-0.399922l-127.175161 127.175162c-7.498535 9.998047-19.296231 16.596758-32.693614 16.596758h-0.299942c-0.799844 0-1.599688-0.199961-2.399531-0.199961-3.499317-0.199961-6.898653-0.899824-10.098028-1.999609-2.599492-0.799844-4.899043-1.899629-7.298574-3.199376-1.799649-0.999805-3.499317-2.09959-5.099004-3.399336-1.499707-1.099785-3.299356-1.699668-4.699083-3.099394-1.599688-1.599688-2.299551-3.599297-3.499316-5.298965-0.499902-0.599883-0.899824-1.299746-1.299746-1.99961-2.699473-4.29916-4.599102-8.698301-5.498926-13.497364v-0.19996c-0.799844-3.899238-1.199766-7.698496-0.799844-11.697716V143.471978c0-45.191174 36.692833-81.884007 81.884007-81.884007H533.19586c22.595587 0 40.991994 18.296426 40.991994 40.991994 0 22.495606-18.396407 40.892013-40.991994 40.892013z" p-id="3353"></path></svg>