<?xml version="1.0" standalone="no"?><!DOCTYPE svg PUBLIC "-//W3C//DTD SVG 1.1//EN" "http://www.w3.org/Graphics/SVG/1.1/DTD/svg11.dtd"><svg t="1531443196065" class="icon" style="" viewBox="0 0 1024 1024" version="1.1" xmlns="http://www.w3.org/2000/svg" p-id="1677" xmlns:xlink="http://www.w3.org/1999/xlink" width="200" height="200"><defs><style type="text/css"></style></defs><path d="M644.55629 521.833395l32.519621-32.128498c14.015966 5.841266 29.397795 9.345001 44.976211 10.902331 19.471227 1.559377 39.71344 0 59.186715-5.060041 26.286208-7.012591 49.652295-20.24938 68.53786-36.995025 19.862351-17.132673 35.050666-39.714464 44.589182-63.861775 3.694178-9.346025-0.975763-20.24938-9.934759-23.55653-3.890764-1.74982-7.983234-1.74982-11.677412-0.975763l-48.874143 13.243957-39.132897 10.904379-29.207352-29.207353-28.813157-29.207353 10.516326-39.327435 10.514278-39.715488 88.389973-23.364039c9.736126-2.728654 15.575344-12.855904 12.84976-22.591006-0.777129-3.88974-3.504759-7.198938-6.620442-9.345001-20.247332-16.351449-44.387477-28.038076-70.281537-33.098117-25.117955-5.060041-51.403139-5.060041-77.687299 2.334458-44.785768 11.685603-80.601277 40.698418-102.020957 78.275009-21.612171 37.187515-28.8193 82.938807-17.335403 127.328331l0.589758 1.953574 0.388053 0.777129-37.187515 36.995024-108.055738-107.864271c3.503736-5.84229 5.84229-11.297551 8.56992-16.745644l0.388053-0.977811c4.472331-9.538516 7.393476-18.883517 9.734078-27.648999 6.810885-11.484922 14.599581-19.080103 24.144239-23.357896 11.290383-5.261747 24.922393-6.819076 42.444143-5.647752 5.059017 0.975763 11.095845-0.783272 14.986609-5.061065 7.207129-7.399619 6.818052-18.883517-0.193514-26.090646-27.061289-25.703617-58.017438-41.861552-89.560273-44.000448-29.207353-1.953573-58.413682 7.787672-85.667462 31.537716-6.23239 2.137873-12.462732 5.060041-19.080103 8.175724-3.511927 1.74982-6.819076 3.503736-9.739197 5.455262l-9.733054-9.345002c-6.810885-6.819076-18.496488-6.819076-25.702593 0l-80.020734 80.405715c-7.207129 6.818052-7.207129 18.305022 0 25.511126l9.540564 8.949782-2.334459 3.896908-0.782248 1.171324c-2.137873 4.277793-4.28496 8.562753-6.424881 13.23679-1.74982 1.171325-3.88974 1.944358-6.423856 2.532068-4.287008 1.361767-10.515302 1.74982-17.329259 1.361768-5.060041-0.394196-10.322812 1.163134-14.212553 5.060041l-38.94143 39.328459c-7.399619 7.399619-7.399619 18.691027 0 25.703617l46.728078 46.922617v0.193514l0.388053 0.193515v0.193514l0.388052 0.782249 0.387029 0.389076 0.783272 0.775081 0.387029 0.394196 46.728078 46.728078c7.399619 7.006447 18.892732 7.006447 26.09167 0l39.327436-39.334602c3.896908-3.88974 5.455261-8.950806 5.060041-14.600605-0.388053-5.253556 0.394196-9.538516 1.56552-13.437471 1.161086-2.525925 2.334459-4.669941 3.889741-7.584942 4.478474-1.953573 9.346025-4.091446 13.630985-6.431024v-0.196586l5.060041-2.921145 108.056762 108.062905-226.436335 226.048283c-6.810885 7.399619-6.810885 19.079079 0 25.889964l80.220391 80.027901a17.649735 17.649735 0 0 0 25.698498 0L538.838082 627.941703l232.275553 232.472139c7.012591 6.811909 18.69205 6.811909 26.09167 0l79.631657-80.01971c7.595181-7.206105 7.595181-18.883517 0-26.09167l-232.280672-232.473163v0.004096zM340.437775 378.339962c-6.619419-6.819076-16.746668-7.207129-24.148335-1.953573-4.664822 3.115683-8.950806 5.84229-13.623819 8.182891-5.068232 2.720463-9.733054 5.448094-14.414257 7.006448-3.503736 1.361767-5.642632 3.503736-7.780505 5.842289-5.455261 6.230342-9.739197 13.236789-12.462732 21.418657-2.340602 6.423857-3.511927 12.848737-3.511927 19.854161l-21.215927 20.643576-34.07388-33.491289-0.388053-0.582591-0.782248-0.393172-0.388053-0.96962-0.193514-0.388052-0.58771-0.393172h-0.388053l-0.775081-1.163134-33.107332-32.903579 21.032653-20.83709c7.787672 0 14.406067-0.776105 20.442894-2.532068 9.927592-2.527973 18.49956-7.198938 25.116931-13.431328 1.944358-2.338554 3.704417-4.670965 4.671989-7.398595 1.363815-4.287008 3.88974-8.562753 6.23239-13.23679l0.388052-0.782248c2.339578-3.88974 5.067208-8.765482 8.376406-14.01699 5.253556-7.786648 3.88974-17.52175-3.309197-23.55653l-5.454238-5.649799 54.128722-54.121555 6.42488 6.229319c6.423857 6.230342 16.15691 7.006447 23.169501 2.334458 6.619419-4.28496 13.236789-8.1747 19.080103-11.291407 6.23239-2.921145 12.07468-5.454237 17.917994-7.206105 2.719439-0.969619 4.664822-2.334459 6.810885-3.88974 19.853136-18.496488 41.078279-25.899179 61.327659-24.728879 9.934759 0.581567 19.086246 3.309197 28.8193 7.39962-3.309197 1.363815-6.230342 2.334459-9.346025 3.88974-17.722431 8.175724-31.537716 22.194762-42.05609 41.079303-0.782248 1.759035-1.556306 3.509879-1.944358 5.261747-1.372006 7.399619-4.28496 14.792071-7.795863 22.776329l-0.388052 0.97781c-3.503736 7.786648-8.175724 16.164078-14.01699 24.533317-4.671989 7.399619-3.309197 16.745644 2.533092 22.978034l118.185035 117.982306-54.516774 54.32326-117.993569-117.789816 0.004096-0.006143z m-40.887837 436.909274l-54.323259-54.129745 364.288159-364.482698c4.864479-4.671989 7.0044-12.065465 4.477451-18.294783l-1.951526-5.84229-0.970643-4.28496-0.589758-1.171325c-9.143296-35.044523-3.694178-70.479146 13.438495-99.881037 16.743597-29.399843 44.387477-51.982658 79.825172-61.523222 20.829923-5.261747 41.668037-5.649799 61.132097-1.750843 6.230342 1.750844 12.85488 3.696226 18.885565 5.642632l-5.838194 1.363815-49.453662 13.630985c-6.423857 1.556306-11.291407 6.229318-13.043275 12.848737l-26.286208 99.298447c-1.748796 6.23239 0 13.043275 4.277793 17.521749l36.800487 36.606972 35.440766 35.431552c4.282912 5.068232 11.288336 7.399619 18.102293 5.454237l50.04649-13.242933 5.638537-1.556305c-4.275745 5.067208-8.752172 10.12725-14.015966 14.800262-14.599581 13.042251-32.903579 22.975987-53.34545 28.615547-15.579439 4.091446-31.540787 5.261747-46.534564 4.091446-15.181148-1.559377-30.369463-5.845361-44.193962-12.26717-6.819076-3.696226-15.973635-2.922169-21.805686 2.921144L299.547891 815.248212l0.002047 0.001024z m484.419601 6.420785l-219.623402-219.623402 54.315069-54.321212 219.437055 219.623402-54.128722 54.321212z" p-id="1678"></path></svg>