<?xml version="1.0" standalone="no"?><!DOCTYPE svg PUBLIC "-//W3C//DTD SVG 1.1//EN" "http://www.w3.org/Graphics/SVG/1.1/DTD/svg11.dtd"><svg t="1531443543326" class="icon" style="" viewBox="0 0 1024 1024" version="1.1" xmlns="http://www.w3.org/2000/svg" p-id="3469" xmlns:xlink="http://www.w3.org/1999/xlink" width="48" height="48"><defs><style type="text/css"></style></defs><path d="M996.846118 874.522442l-143.754375 143.554438c-7.897493 7.897493-20.793401 7.897493-28.790862 0-7.897493-7.897493-7.897493-20.793401 0-28.690894l108.865448-108.76548H634.161228c-11.296415 0-20.493496-9.197081-20.493496-20.493496s9.197081-20.493496 20.493496-20.493495h299.005101L824.300881 730.968003c-7.897493-7.897493-7.897493-20.793401 0-28.690894 7.897493-7.897493 20.793401-7.897493 28.790862 0L996.846118 845.831548c7.897493 7.897493 7.897493 20.793401 0 28.690894zM818.402753 655.491958c-13.395748 0-25.291973-6.597906-32.689625-16.594733-72.576965-65.779123-168.546506-106.266273-274.312938-106.266273-226.028263 0.099968-409.270105 183.34181-409.270104 409.370073 0 22.592829-18.294194 40.887023-40.887023 40.887023-22.592829 0-40.887023-18.294194-40.887024-40.887023 0-214.931784 138.25612-397.073976 330.495107-463.752813-63.879726-48.58458-105.366558-125.260245-105.366559-211.732799C245.484587 119.562053 364.646767 0.399873 511.500159 0.399873s266.015571 119.16218 266.015571 266.11554c0 86.472555-41.386865 163.14822-105.366559 211.732799 70.177727 24.29229 133.05777 64.17963 184.741367 115.263418-0.899714 0.399873-1.699461 1.099651-2.699144 1.499524 3.198985 5.79816 5.19835 12.396066 5.19835 19.493813-0.099968 22.692798-18.394162 40.986991-40.986991 40.986991z m-122.761038-388.876577c0-101.767701-82.473824-184.241525-184.241525-184.241525-101.767701 0-184.241525 82.473824-184.241525 184.241525 0 101.767701 82.473824 184.241525 184.241525 184.241525 101.767701 0 184.241525-82.473824 184.241525-184.241525z" p-id="3470"></path></svg>