<?xml version="1.0" standalone="no"?><!DOCTYPE svg PUBLIC "-//W3C//DTD SVG 1.1//EN" "http://www.w3.org/Graphics/SVG/1.1/DTD/svg11.dtd"><svg t="1531443558455" class="icon" style="" viewBox="0 0 1024 1024" version="1.1" xmlns="http://www.w3.org/2000/svg" p-id="3586" xmlns:xlink="http://www.w3.org/1999/xlink" width="48" height="48"><defs><style type="text/css"></style></defs><path d="M239.666981 642.346745c-81.069192 0-146.785224 68.09247-146.785224 152.085879s65.716032 152.082807 146.785224 152.082806c81.063049 0 146.785224-68.089398 146.785224-152.082806s-65.721151-152.085878-146.785224-152.085879z m0 260.719088c-57.910954 0-104.847905-48.636601-104.847905-108.632186 0-59.992513 46.937975-108.623994 104.847905-108.623994 57.904811 0 104.844833 48.630457 104.844834 108.623994 0.001024 59.995584-46.940023 108.632185-104.844834 108.632186z m648.994833-476.332955c-45.579279-47.220567-113.675844-56.891164-168.481354-29.017934l58.572384-60.608892c57.320172-59.396612 57.320172-155.689955 0-215.078375-57.323244-59.39354-150.264386-59.39354-207.586607 0l-289.999136 300.09055c-57.323244 59.384325-57.323244 155.67562 0 215.066088 45.4687 47.118179 113.343082 56.854304 168.079991 29.224759l-19.60638 20.284192c-0.953237 0.983954-1.894188 1.982242-2.821828 2.992817-0.07372 0.080887-0.144368 0.162798-0.218087 0.242661-0.747436 0.818084-1.487705 1.643336-2.216712 2.478826-0.330715 0.378838-0.653239 0.762795-0.979858 1.144704-0.455629 0.53242-0.913306 1.062793-1.361768 1.601357-0.460748 0.552898-0.911258 1.111939-1.362791 1.670981-0.297951 0.368599-0.598973 0.73515-0.893852 1.10682a144.081143 144.081143 0 0 0-1.599309 2.058009c-0.19249 0.250852-0.387029 0.50068-0.577471 0.75358-0.591806 0.782248-1.172349 1.57064-1.747772 2.361079l-0.361432 0.495561c-0.620475 0.861088-1.228662 1.727295-1.828659 2.598621-0.071672 0.104436-0.144368 0.207849-0.215016 0.312285a154.412146 154.412146 0 0 0-1.859376 2.778825l-0.125938 0.19249c-0.626618 0.961428-1.240949 1.929-1.844017 2.902715l-0.088054 0.14232c-0.60614 0.980882-1.201017 1.967908-1.782585 2.959029l-0.10034 0.170988a155.507703 155.507703 0 0 0-3.369607 6.070617l-0.2529 0.484297a147.799894 147.799894 0 0 0-1.732414 3.428992c-0.391124 0.799654-0.777129 1.600333-1.153918 2.405107-0.174061 0.37167-0.346073 0.746412-0.518086 1.12013-0.316381 0.689075-0.628666 1.379174-0.933784 2.072344-0.225255 0.509895-0.44539 1.022861-0.665525 1.535828a146.777033 146.777033 0 0 0-1.517398 3.673701c-0.165869 0.418769-0.332763 0.836514-0.495561 1.256307-0.316381 0.813989-0.623546 1.632073-0.926616 2.452205-0.101365 0.276449-0.203753 0.551874-0.304094 0.828324-0.347097 0.958357-0.684979 1.922857-1.013646 2.890428l-0.143344 0.422865a155.698146 155.698146 0 0 0-1.065865 3.286672l-0.019454 0.061433a156.079031 156.079031 0 0 0-6.409522 32.15819l-0.022525 0.262115a155.241493 155.241493 0 0 0-0.269282 3.335818c-0.014334 0.208873-0.024573 0.417745-0.037884 0.626618-0.065529 1.003408-0.126962 2.007839-0.174061 3.01739-0.016382 0.343002-0.023549 0.687027-0.037883 1.030028-0.034812 0.887709-0.071672 1.775417-0.09215 2.666198-0.011263 0.502728-0.011263 1.005455-0.01843 1.509207-0.010239 0.727982-0.026621 1.452893-0.026621 2.182923 0 0.701361 0.016382 1.397603 0.025597 2.095894 0.007167 0.534468 0.007167 1.068936 0.019454 1.603404 0.019454 0.860064 0.05529 1.716032 0.089078 2.572 0.015358 0.37679 0.023549 0.75358 0.041979 1.130369 0.045051 0.974739 0.10546 1.945382 0.167917 2.915002 0.016382 0.245732 0.027645 0.490441 0.045051 0.736173 0.074744 1.079175 0.163822 2.153231 0.261091 3.226263 0.011263 0.126962 0.020478 0.2529 0.032765 0.379862 0.107508 1.164158 0.22935 2.323196 0.361431 3.479162l0.011263 0.099317a155.962308 155.962308 0 0 0 6.002016 28.444558l0.10034 0.319452a157.867759 157.867759 0 0 0 2.133777 6.332731 150.460972 150.460972 0 0 0 3.368583 8.521797c0.173037 0.402387 0.346073 0.805798 0.523205 1.206137 0.35324 0.804774 0.715696 1.605452 1.083271 2.405107 0.119795 0.260067 0.239589 0.521158 0.361432 0.781224 0.429008 0.918425 0.868255 1.832755 1.315692 2.742989l0.205801 0.418769c0.498632 1.007503 1.009551 2.009887 1.531733 3.008175l0.066552 0.127986a152.002944 152.002944 0 0 0 11.401987 18.428912l0.037884 0.052218c0.677812 0.937879 1.366887 1.869615 2.068248 2.795207 0.065529 0.08703 0.132081 0.172013 0.198634 0.258019 0.650167 0.852896 1.306478 1.701697 1.977123 2.543331 0.140272 0.177132 0.28464 0.351193 0.425936 0.527301 0.603068 0.750508 1.210232 1.499992 1.828659 2.241285 0.239589 0.287712 0.485322 0.56928 0.726959 0.854945 0.534468 0.630713 1.067912 1.261427 1.613643 1.883949 0.392148 0.447438 0.792487 0.886685 1.189755 1.330027 0.41365 0.461772 0.82218 0.925592 1.242997 1.383269 0.821156 0.893852 1.652551 1.777465 2.494184 2.650839l0.039932 0.043003 0.044027 0.045051c0.84061 0.870303 1.691459 1.729342 2.551522 2.578143 0.459725 0.453581 0.925592 0.893852 1.389412 1.340266 0.40853 0.393172 0.813989 0.789416 1.226615 1.177468 0.621498 0.584639 1.250164 1.154943 1.877806 1.727295 0.253924 0.230374 0.504775 0.464844 0.759723 0.694194 0.737197 0.66143 1.482586 1.309549 2.230022 1.953573 0.146416 0.125938 0.290783 0.253924 0.437199 0.378838 0.837538 0.71672 1.683267 1.419105 2.532068 2.113299l0.163822 0.135153a145.349737 145.349737 0 0 0 23.678372 15.721759l0.182252 0.096245c0.954261 0.504775 1.912618 0.998288 2.87507 1.480539 0.168941 0.084982 0.338906 0.167917 0.507847 0.251875 0.85392 0.422865 1.711936 0.838562 2.572 1.244021 0.298975 0.141296 0.599997 0.279521 0.901019 0.418769 0.733102 0.338906 1.467228 0.673717 2.204425 0.999312 0.443342 0.196586 0.888732 0.388053 1.334122 0.580543 0.599997 0.258019 1.201017 0.51399 1.803062 0.763819 0.58771 0.243685 1.178492 0.481226 1.770298 0.717743 0.466892 0.185323 0.93276 0.370646 1.400675 0.551874 0.727982 0.281568 1.458013 0.554946 2.191115 0.825252 0.337882 0.12389 0.67474 0.24778 1.012622 0.369623 0.85392 0.307166 1.710912 0.605116 2.572 0.895899l0.671669 0.226279a144.423121 144.423121 0 0 0 6.43 1.968931l0.175084 0.049147c1.102724 0.308189 2.210568 0.603068 3.323532 0.884637l0.052218 0.01331a140.251812 140.251812 0 0 0 6.854913 1.553234l0.072695 0.014335c1.116035 0.223207 2.236166 0.434127 3.361416 0.630713l0.194538 0.033788c1.074056 0.186347 2.152207 0.362455 3.234454 0.52423l0.406482 0.059385c1.008527 0.148463 2.018078 0.287712 3.032749 0.414673 0.232422 0.029693 0.465868 0.054266 0.699313 0.082935 0.919449 0.11058 1.839922 0.21604 2.765515 0.309214 0.360408 0.03686 0.721839 0.065529 1.082246 0.099316 0.800678 0.07372 1.602381 0.148463 2.407155 0.208873 0.548803 0.041979 1.098629 0.072696 1.648455 0.108532 0.626618 0.039932 1.252212 0.084982 1.880878 0.116723 0.856992 0.044027 1.713984 0.072696 2.571999 0.101364 0.336858 0.011263 0.672693 0.028669 1.010575 0.037884 2.463468 0.063481 4.928984 0.063481 7.392452 0 0.366551-0.009215 0.731054-0.028669 1.097605-0.040955 0.826275-0.027645 1.653575-0.05529 2.479851-0.097269 0.658358-0.032764 1.312621-0.079863 1.968931-0.121843 0.518086-0.033788 1.036172-0.062457 1.554258-0.102388 0.834467-0.062457 1.664838-0.139248 2.496232-0.21604 0.329691-0.030717 0.659382-0.057338 0.98805-0.091126 0.955285-0.095221 1.907498-0.204777 2.85664-0.319452 0.199658-0.024573 0.400339-0.046075 0.599997-0.070648 1.046411-0.131057 2.088726-0.274401 3.127969-0.427984l0.306142-0.044027c1.115011-0.166893 2.225927-0.348121 3.333771-0.540612l0.088054-0.015358c4.665845-0.816037 9.255923-1.859376 13.761019-3.119779l0.052218-0.014334c1.095557-0.307166 2.185995-0.626618 3.270289-0.958357l0.259043-0.079863c1.010575-0.312285 2.018078-0.633785 3.019438-0.967571l0.543683-0.183276c0.903067-0.305118 1.803062-0.617403 2.698962-0.939927 0.294879-0.10546 0.588734-0.213992 0.882589-0.322523a121.408226 121.408226 0 0 0 3.592814-1.375078c0.634809-0.2529 1.26757-0.507847 1.897259-0.768938 0.561089-0.232422 1.119107-0.470987 1.678148-0.710577 0.487369-0.209896 0.974739-0.419793 1.460061-0.634809a150.71592 150.71592 0 0 0 2.079511-0.941974c0.343002-0.158702 0.684979-0.316381 1.026957-0.478155 0.819108-0.386005 1.635145-0.782248 2.44811-1.184635 0.21092-0.104436 0.421841-0.207849 0.631737-0.313309 0.923545-0.462796 1.84197-0.935831 2.757323-1.420129l0.298975-0.157678c1.002384-0.53242 2.000672-1.078151 2.99384-1.637193l0.039932-0.022525a145.315949 145.315949 0 0 0 17.820724-11.833043l0.059385-0.047099c0.901019-0.699314 1.795895-1.408866 2.683604-2.131729l0.276449-0.228326c0.812965-0.664502 1.62081-1.337194 2.423536-2.022174 0.188395-0.16075 0.373718-0.324572 0.56109-0.486345 0.706481-0.610236 1.411938-1.222519 2.110227-1.849137 0.304094-0.272353 0.603068-0.55085 0.905115-0.826276 0.580543-0.528325 1.16211-1.055626 1.735485-1.596237 0.484298-0.454605 0.958357-0.918425 1.436512-1.379173 0.394196-0.379861 0.791463-0.754603 1.181563-1.139585 0.889756-0.87747 1.770298-1.765178 2.638553-2.666197l251.521525-260.227623 0.087031 0.090102c57.320172-59.390468 57.320172-155.683811-0.003072-215.077351zM600.823076 152.749356c40.942102-42.422641 107.328779-42.422641 148.273953 0C778.283904 182.991857 786.658262 226.619611 774.234438 264.552514c-7.261395-8.185963-17.043595-16.530629-30.150351-24.68178-47.774489-29.759227-121.989793-46.271426-191.632426-37.06772l48.371415-50.053658zM491.191579 266.19585c69.441951-36.529157 175.033196-24.051066 231.310029 10.928952 14.637465 9.113603 24.554818 19.091366 27.944902 27.818964-0.446414 0.480202-0.891804 0.960404-1.349481 1.434464l-67.119778 69.454237c-7.517366-11.076391-19.300238-22.714896-37.416866-33.983778-47.519542-29.600525-121.200378-46.09327-190.519462-37.210041l37.150656-38.442798z m-97.575248 100.971475c69.455261-35.28616 173.603852-22.724111 229.356456 11.935431 15.063401 9.37367 25.132289 19.666789 28.229542 28.57664L531.727199 531.311501c0.41365-39.471803-13.903339-79.077735-42.973491-109.19225-29.023053-30.06844-67.176092-44.902491-105.214456-44.523654l10.077079-10.428272z m-82.791367 239.298383c-40.948246-42.428784-40.948246-111.203161 0-153.625802 40.942102-42.422641 107.328779-42.422641 148.273953 0 40.945174 42.422641 40.945174 111.197018 0 153.625802-40.945174 42.425712-107.331851 42.419569-148.273953 0z m327.225558 190.623898c-0.013311 0.55597-0.03686 1.112963-0.057337 1.668933-0.012287 0.325596-0.020478 0.653239-0.035836 0.977811-0.030717 0.662454-0.071672 1.323884-0.114675 1.986337-0.013311 0.206825-0.023549 0.41365-0.037884 0.620475-0.052218 0.742317-0.113651 1.484634-0.180204 2.225926l-0.030717 0.353241c-0.074744 0.808869-0.159726 1.616715-0.251875 2.423536l-0.014335 0.131058a112.313053 112.313053 0 0 1-3.55493 17.855536l-0.020477 0.072696c-0.224231 0.784296-0.458701 1.565521-0.700338 2.345721l-0.093173 0.297951c-0.219111 0.700338-0.446414 1.397603-0.678836 2.093845l-0.192491 0.566209a112.942742 112.942742 0 0 1-1.50204 4.128305 123.060777 123.060777 0 0 1-0.924568 2.312957c-0.21092 0.511943-0.42696 1.020814-0.645048 1.528661-0.109556 0.253924-0.218088 0.506823-0.329691 0.760747-0.269282 0.61126-0.542659 1.220471-0.82218 1.825587l-0.205801 0.44539c-0.325596 0.697266-0.658358 1.39146-0.998288 2.080535l-0.082935 0.168941a109.115459 109.115459 0 0 1-14.057945 21.562002l-0.020478 0.024573c-8.776745 10.492777-19.460988 19.224471-31.494712 25.616587l-0.084983 0.045051c-0.691123 0.366551-1.386341 0.723887-2.085654 1.074055l-0.351193 0.174061c-0.609212 0.302046-1.222519 0.598973-1.837874 0.889756-0.219111 0.103412-0.439247 0.204777-0.658358 0.306142-0.516038 0.238565-1.0331 0.474059-1.553234 0.704433-0.328667 0.145392-0.658358 0.287712-0.98805 0.430032a88.727854 88.727854 0 0 1-2.575071 1.065865 100.895708 100.895708 0 0 1-2.579167 0.987025c-0.207849 0.075768-0.414674 0.152559-0.622523 0.227303-0.649143 0.233446-1.29931 0.459725-1.951525 0.679859l-0.354265 0.118771a94.637721 94.637721 0 0 1-2.200329 0.704433l-0.134129 0.040956a101.77113 101.77113 0 0 1-14.724495 3.334794l-0.048123 0.007167c-0.798631 0.118771-1.599309 0.228326-2.399987 0.328667l-0.240613 0.028669c-0.741293 0.091126-1.48361 0.174061-2.225926 0.248804-0.159726 0.016382-0.320476 0.028669-0.481227 0.044027-0.668597 0.063481-1.337194 0.12389-2.006815 0.174061-0.264162 0.019454-0.530373 0.034812-0.794535 0.052218-0.5744 0.038908-1.148799 0.077815-1.724223 0.106484-0.417745 0.020478-0.837538 0.033788-1.256307 0.049147-0.431056 0.016382-0.862111 0.03686-1.294191 0.048122a102.101845 102.101845 0 0 1-2.569952 0.033789h-0.024573c-0.868255 0-1.734462-0.012287-2.597598-0.033789-0.414674-0.010239-0.829347-0.030717-1.24402-0.046075-0.437199-0.016382-0.874398-0.029693-1.30955-0.051194-0.558018-0.028669-1.116035-0.066553-1.673028-0.103412-0.282592-0.01843-0.566209-0.034812-0.848801-0.05529-0.652215-0.049146-1.303406-0.107508-1.954597-0.168941-0.17918-0.016382-0.35836-0.03174-0.536516-0.049147-0.724911-0.072696-1.447774-0.154607-2.171661-0.24266l-0.297951-0.034813a106.444142 106.444142 0 0 1-2.453229-0.336858 101.78956 101.78956 0 0 1-12.299934-2.628313l-0.05529-0.015359a102.603548 102.603548 0 0 1-4.645368-1.422176l-0.44539-0.149488c-0.621498-0.209896-1.240949-0.425936-1.859376-0.647095-0.240613-0.086006-0.480202-0.174061-0.719791-0.262115a99.168413 99.168413 0 0 1-1.560401-0.58771c-0.341978-0.132081-0.681908-0.267234-1.021838-0.402387a91.400195 91.400195 0 0 1-2.576095-1.068936 96.019966 96.019966 0 0 1-2.542307-1.136513l-0.550851-0.255971c-0.653239-0.307166-1.302382-0.621498-1.94743-0.941975l-0.238565-0.11877c-21.338794-10.681172-38.651671-28.632953-48.943766-50.750924l-0.026621-0.056314c-0.340954-0.73515-0.673717-1.475419-1.000336-2.21876l-0.150511-0.348121a105.685443 105.685443 0 0 1-0.82218-1.948453c-0.09215-0.224231-0.182252-0.448462-0.272354-0.672693a110.202825 110.202825 0 0 1-2.342649-6.364471 114.18062 114.18062 0 0 1-2.051867-6.891772l-0.10546-0.403411c-0.188395-0.73003-0.370646-1.462108-0.544707-2.196234l-0.072696-0.30819c-0.176108-0.754603-0.345049-1.510231-0.505799-2.266882l-0.059385-0.281568c-0.158702-0.757675-0.310237-1.517398-0.453582-2.278145l-0.058361-0.316381c-0.137201-0.743341-0.268258-1.487705-0.3901-2.233094l-0.066553-0.416721a114.931128 114.931128 0 0 1-0.3215-2.130705c-0.027645-0.194538-0.053242-0.3901-0.078839-0.585663-0.089078-0.657334-0.174061-1.314669-0.251876-1.973027-0.03174-0.27133-0.060409-0.543683-0.090102-0.816036-0.064505-0.583615-0.126962-1.167229-0.182251-1.751868-0.035836-0.384981-0.066553-0.77201-0.099317-1.159038-0.039932-0.477131-0.081911-0.953237-0.115699-1.430368-0.038908-0.553922-0.070648-1.108868-0.101365-1.664838-0.01843-0.318428-0.039932-0.635833-0.05529-0.954261-0.040955-0.849825-0.071672-1.701697-0.094197-2.556641-0.001024-0.033788-0.003072-0.066553-0.003072-0.100341a115.26901 115.26901 0 0 1 0-5.579151l0.008191-0.230374c0.021502-0.807846 0.05017-1.614667 0.089078-2.418418 0.017406-0.364503 0.041979-0.729006 0.063481-1.092485 0.028669-0.505799 0.057338-1.011599 0.093174-1.516374 0.037884-0.526277 0.082935-1.05153 0.126962-1.577808 0.028669-0.333787 0.054266-0.668597 0.086006-1.00136 0.060409-0.636857 0.127986-1.271666 0.198634-1.907498 0.023549-0.21604 0.046075-0.433103 0.071672-0.649143 0.083959-0.713648 0.175084-1.427296 0.272353-2.138897l0.054266-0.405458c0.108532-0.770986 0.224231-1.540947 0.349145-2.309885l0.035836-0.222184c0.133105-0.810917 0.274401-1.619787 0.424912-2.427632l0.019454-0.106484c0.155631-0.831395 0.320476-1.661766 0.495561-2.490089l0.011262-0.052218c0.176108-0.834467 0.362455-1.666885 0.558018-2.497256l0.014334-0.061433c0.19249-0.81706 0.39522-1.632073 0.60614-2.445039l0.035836-0.136176c0.203753-0.780201 0.416721-1.55733 0.636857-2.333435l0.077815-0.272354c0.207849-0.722863 0.422865-1.442654 0.645048-2.161421l0.14744-0.470988c0.202729-0.645048 0.411602-1.289072 0.626617-1.931047 0.079863-0.239589 0.161774-0.478154 0.243685-0.71672a106.310013 106.310013 0 0 1 1.96586-5.292463c0.139248-0.348121 0.279521-0.695218 0.421841-1.041292a118.053978 118.053978 0 0 1 0.662454-1.569616c0.10546-0.244709 0.21092-0.490441 0.318428-0.73515 0.269282-0.613307 0.544707-1.223543 0.825251-1.830707l0.207849-0.450509c0.322524-0.690099 0.651191-1.377126 0.98805-2.060057l0.099316-0.200682c0.370646-0.74846 0.749484-1.492825 1.136513-2.231046l0.009215-0.017406a109.170749 109.170749 0 0 1 8.162414-13.195834l0.025597-0.035836c0.484298-0.670645 0.976787-1.33617 1.476443-1.994529l0.149487-0.194538c0.461772-0.607164 0.929688-1.209209 1.403747-1.806134 0.104436-0.131057 0.21092-0.260067 0.315356-0.3901 0.427984-0.533444 0.85904-1.063817 1.296239-1.588046 0.175084-0.208873 0.354264-0.415697 0.530373-0.62457 0.377814-0.446414 0.755627-0.892828 1.140608-1.332075 0.28464-0.325596 0.576447-0.646072 0.866207-0.968596 0.290783-0.323548 0.577471-0.650167 0.871326-0.969619 0.585662-0.636857 1.179516-1.268594 1.782585-1.894188l0.034812-0.03686c0.610236-0.631737 1.226615-1.25426 1.848113-1.867566 0.328667-0.324572 0.664502-0.641976 0.997264-0.962453 0.28976-0.278497 0.577471-0.561089 0.870303-0.83549 0.45051-0.422865 0.907162-0.839586 1.364839-1.25426 0.172013-0.156654 0.343002-0.316381 0.516038-0.470987 0.534468-0.478154 1.074056-0.950166 1.618763-1.418081l0.285664-0.24778a109.28952 109.28952 0 0 1 1.835826-1.531733l0.088054-0.072696a104.414802 104.414802 0 0 1 19.167134-12.394131l0.206824-0.102389a102.439727 102.439727 0 0 1 1.997601-0.966548c0.155631-0.07372 0.312285-0.145392 0.468939-0.218087a100.370455 100.370455 0 0 1 7.608492-3.16483 98.962612 98.962612 0 0 1 2.559713-0.907162c0.244709-0.082935 0.489417-0.165869 0.734126-0.246757a94.545571 94.545571 0 0 1 1.803062-0.577471l0.559042-0.172013a97.000848 97.000848 0 0 1 4.45902-1.245044l0.364503-0.09215a100.98069 100.98069 0 0 1 2.117395-0.507847l0.352217-0.079863a100.473867 100.473867 0 0 1 7.020781-1.318764c0.244709-0.03686 0.490441-0.071672 0.736174-0.106484 0.575424-0.082935 1.150847-0.162798 1.727294-0.236518 0.335834-0.041979 0.672693-0.080887 1.009551-0.119795 0.489417-0.057338 0.979858-0.113651 1.469276-0.163821a89.252084 89.252084 0 0 1 1.394532-0.127986c0.368599-0.032764 0.737197-0.067576 1.105796-0.096245 0.66143-0.051194 1.325931-0.093174 1.990433-0.131057 0.17918-0.010239 0.357336-0.023549 0.536516-0.032765a102.943478 102.943478 0 0 1 10.628953 0c0.196586 0.010239 0.392148 0.024573 0.588734 0.03686 0.646072 0.03686 1.292143 0.077815 1.935144 0.126962 0.387029 0.029693 0.773033 0.066553 1.159038 0.100341 0.446414 0.038908 0.892828 0.077815 1.338218 0.122866 0.508871 0.052218 1.016718 0.11058 1.524565 0.169965 0.317404 0.03686 0.634809 0.072696 0.95119 0.112627 0.594877 0.075768 1.189755 0.157678 1.784632 0.243685 0.225255 0.032764 0.45051 0.063481 0.67474 0.098293 0.658358 0.099317 1.315693 0.206825 1.972003 0.319452 0.159726 0.027645 0.320476 0.054266 0.480203 0.082935 0.702385 0.12389 1.403747 0.255971 2.10306 0.39522l0.344026 0.0686c0.727982 0.147439 1.453917 0.302046 2.179851 0.465868l0.278497 0.062457a100.135985 100.135985 0 0 1 4.619771 1.168253l0.350169 0.098293a103.316173 103.316173 0 0 1 6.729998 2.151183 103.747228 103.747228 0 0 1 2.296575 0.85392 110.637977 110.637977 0 0 1 2.273025 0.909211c0.467916 0.193514 0.933783 0.391124 1.397603 0.591805a89.821364 89.821364 0 0 1 3.083943 1.389413 100.170797 100.170797 0 0 1 2.207497 1.072008c0.700338 0.351193 1.39658 0.708529 2.087702 1.075079l0.102389 0.054266a104.420945 104.420945 0 0 1 14.9262 9.650119l0.093173 0.072696c0.626618 0.486346 1.248116 0.979858 1.863472 1.480538l0.271329 0.223207c0.55597 0.455629 1.108868 0.915353 1.655623 1.381222 0.168941 0.144368 0.335834 0.291807 0.503751 0.437199 0.469963 0.406482 0.938903 0.813989 1.401699 1.228662 0.272353 0.243685 0.541635 0.493513 0.811942 0.741293 0.35836 0.327643 0.717744 0.653239 1.072007 0.984978 0.446414 0.419793 0.888732 0.847777 1.330027 1.276785 0.17918 0.174061 0.361432 0.345049 0.540612 0.521157 0.636857 0.627642 1.26757 1.264498 1.893164 1.911594 0.625594 0.648119 1.240949 1.303406 1.848113 1.963812 0.158702 0.173037 0.313309 0.350169 0.470987 0.52423 0.425936 0.469963 0.849825 0.939927 1.266546 1.415009 0.306142 0.350169 0.607164 0.706481 0.90921 1.061769 0.253924 0.297951 0.510919 0.594877 0.761771 0.8959 0.383957 0.460748 0.761771 0.926616 1.137537 1.393508 0.156654 0.194538 0.316381 0.388053 0.472011 0.583614 0.43208 0.543683 0.858016 1.09351 1.279857 1.646408l0.274401 0.357336c0.462796 0.61126 0.919449 1.228662 1.369958 1.850161l0.134129 0.183275c0.480202 0.665525 0.953237 1.337194 1.418082 2.015007l0.039931 0.057337a109.37143 109.37143 0 0 1 5.427616 8.77265l0.022526 0.039931c0.402387 0.724911 0.795559 1.454941 1.181563 2.190091l0.095222 0.182251a114.603484 114.603484 0 0 1 1.238901 2.445039 117.003472 117.003472 0 0 1 1.197946 2.520805 111.353672 111.353672 0 0 1 1.716032 3.927624 114.939319 114.939319 0 0 1 1.537875 3.930696c0.089078 0.242661 0.17918 0.484298 0.267234 0.726959a111.063913 111.063913 0 0 1 1.545043 4.583934l0.05529 0.175085a112.140016 112.140016 0 0 1 4.294175 20.340506l0.008191 0.069624c0.095221 0.826275 0.181228 1.652551 0.258019 2.480874l0.025597 0.294879c0.0686 0.759723 0.131057 1.519446 0.1843 2.281216 0.013311 0.187371 0.022525 0.375766 0.034812 0.564161 0.044027 0.678836 0.086006 1.358696 0.117747 2.038556 0.014334 0.307166 0.022525 0.616379 0.033788 0.924568 0.022525 0.573376 0.046075 1.145728 0.059385 1.719104 0.012287 0.520134 0.014334 1.042315 0.019454 1.563473 0.007167 0.709553 0.007167 1.419105 0.001024 2.128657-0.015358 0.53242-0.017406 1.073032-0.029693 1.609548z m41.951654-0.979858c0.006143-0.559041 0.020478-1.116035 0.020477-1.676101 0-1.057674-0.017406-2.111252-0.038907-3.163805-0.003072-0.165869-0.002048-0.331739-0.006143-0.497608a157.514518 157.514518 0 0 0-0.105461-3.042988c-0.009215-0.21604-0.013311-0.43208-0.023549-0.648119a156.005311 156.005311 0 0 0-0.188395-3.264147c-0.008191-0.125938-0.014334-0.251876-0.023549-0.377813a158.567072 158.567072 0 0 0-0.290784-3.596909 155.966404 155.966404 0 0 0-7.510199-35.578991l-0.114675-0.338907c-0.337882-0.995217-0.684979-1.986338-1.042315-2.971315-0.090102-0.249828-0.183275-0.499656-0.275425-0.749484a152.556866 152.556866 0 0 0-2.256643-5.771641 158.620315 158.620315 0 0 0-0.681908-1.614668 140.282528 140.282528 0 0 0-2.148111-4.795878 144.804006 144.804006 0 0 0-1.530709-3.168925c-0.433103-0.87235-0.876446-1.740605-1.326955-2.606813l-0.283617-0.542659c-0.491465-0.933783-0.993169-1.863471-1.505111-2.789063l-0.187371-0.338906a158.709393 158.709393 0 0 0-1.648455-2.889405l-0.132082-0.226278a150.71592 150.71592 0 0 0-3.684963-5.954917l-0.159726-0.244709a148.670197 148.670197 0 0 0-1.824564-2.726607l-0.255971-0.370646a153.562321 153.562321 0 0 0-1.788728-2.541284c-0.134129-0.186347-0.270306-0.37167-0.405458-0.556993a146.42584 146.42584 0 0 0-1.702722-2.300671c-0.208873-0.276449-0.421841-0.55085-0.633785-0.825251-0.509895-0.665525-1.021838-1.329003-1.545043-1.987361-0.317404-0.399315-0.639928-0.793511-0.961428-1.189755-0.430032-0.530373-0.858016-1.061769-1.296239-1.588046-0.480202-0.577471-0.970643-1.146752-1.459036-1.717056-0.294879-0.343002-0.583615-0.689075-0.881566-1.030029a147.865423 147.865423 0 0 0-2.3877-2.669269l-0.047099-0.053242a149.275313 149.275313 0 0 0-7.985281-8.073336c-0.306142-0.287712-0.617403-0.567232-0.925593-0.850848a140.840546 140.840546 0 0 0-1.732414-1.580879c-0.480202-0.430032-0.966548-0.848801-1.450845-1.271666-0.411602-0.35836-0.821156-0.718767-1.23583-1.072008-0.60614-0.517062-1.218424-1.022861-1.830707-1.527637-0.296927-0.244709-0.591806-0.491465-0.89078-0.733102a149.012175 149.012175 0 0 0-2.125586-1.688386c-0.212968-0.166893-0.425936-0.334811-0.639928-0.50068-0.778153-0.602045-1.562449-1.191803-2.349817-1.775418-0.156654-0.115699-0.312285-0.233446-0.469964-0.348121a145.325164 145.325164 0 0 0-2.515686-1.807157l-0.363479-0.255971a146.380789 146.380789 0 0 0-2.623194-1.788728l-0.328667-0.219112c-0.883613-0.584639-1.771322-1.159038-2.663126-1.722175l-0.373718-0.235493a145.773625 145.773625 0 0 0-8.684596-5.036492c-0.330715-0.177132-0.66143-0.350169-0.993168-0.525253-0.684979-0.359384-1.372006-0.714672-2.061082-1.061769-0.45051-0.227303-0.904091-0.45051-1.357672-0.673717a139.401987 139.401987 0 0 0-1.718079-0.831395 140.425872 140.425872 0 0 0-1.780537-0.828323c-0.439247-0.200682-0.879517-0.402387-1.320812-0.598973-0.741293-0.330715-1.487705-0.654263-2.235141-0.972691-0.296927-0.125938-0.593853-0.2529-0.891805-0.377814-0.894876-0.373718-1.794871-0.738221-2.698961-1.094533l-0.457677-0.180204c-1.040267-0.405459-2.085654-0.798631-3.136161-1.18054l-0.053242-0.019454a141.814261 141.814261 0 0 0-44.963924-8.476746c69.183931-29.951717 166.969075-17.019022 220.3606 16.178412 15.03166 9.349097 25.08519 19.619691 28.202921 28.518278L680.002176 796.109748z m179.006895-185.026317l-0.08703-0.090102-42.779977 44.260515c-7.51839-11.064105-19.295119-22.687251-37.390244-33.944871-47.541043-29.607692-121.264882-46.100437-190.610588-37.19161l38.436655-39.766682c69.226935-30.390964 167.548595-17.487961 221.143872 15.824147 14.843266 9.243637 24.841506 19.370886 28.09439 28.185516a108.363927 108.363927 0 0 1-16.807078 22.723087z m10.296191-88.164718c-46.367671-28.877662-117.640328-45.278257-185.468636-37.805942l26.810438-27.738077 0.084982 0.088054c40.942102-42.430832 107.328779-42.430832 148.273953 0 21.357224 22.127186 31.567408 51.427712 30.643864 80.418001-5.683587-5.004751-12.399251-10.018718-20.344601-14.962036z" fill="#333" p-id="3587"></path></svg>