<?xml version="1.0" standalone="no"?><!DOCTYPE svg PUBLIC "-//W3C//DTD SVG 1.1//EN" "http://www.w3.org/Graphics/SVG/1.1/DTD/svg11.dtd"><svg t="1531443521749" class="icon" style="" viewBox="0 0 1024 1024" version="1.1" xmlns="http://www.w3.org/2000/svg" p-id="3235" xmlns:xlink="http://www.w3.org/1999/xlink" width="48" height="48"><defs><style type="text/css"></style></defs><path d="M995.465107 527.624862 810.214962 342.31025c-4.031826-4.033873-9.249665-6.135744-14.530948-6.353708-1.455141-0.294712-2.960425-0.451278-4.502547-0.451278L604.211145 335.505263l0-76.638471c0-16.851806-13.660114-30.510898-30.510898-30.510898L340.285127 228.355895c-17.111726-70.051449-80.281441-122.044614-155.602917-122.044614-83.915201 0-152.748916 64.529689-159.611208 146.671501-0.372483 1.904373-0.572028 3.870144-0.572028 5.884011l0 518.690376c0 16.851806 13.660114 30.510898 30.510898 30.510898l94.941326 0c13.875009 61.142545 68.550259 106.789165 133.892453 106.789165 65.341171 0 120.017444-45.64662 133.892453-106.789165L573.700247 808.068066c1.379417 0 2.734274-0.100284 4.064572-0.277316 1.161453 0.181125 2.350534 0.277316 3.563152 0.277316l72.058153 0c13.875009 61.142545 68.550259 106.789165 133.892453 106.789165 65.341171 0 120.017444-45.64662 133.892453-106.789165l56.802704 0c12.637832 0 22.883173-10.245342 22.883173-22.883173L1000.856907 594.489736l0.155543 0 0-45.417399C1003.115344 541.697369 1001.272369 533.433148 995.465107 527.624862zM184.682209 152.077627c63.190181 0 114.416889 51.226708 114.416889 114.416889s-51.226708 114.416889-114.416889 114.416889c-63.192228 0-114.416889-51.226708-114.416889-114.416889S121.491005 152.077627 184.682209 152.077627zM283.84365 869.090884c-50.55235 0-91.533716-40.981367-91.533716-91.533716s40.981367-91.533716 91.533716-91.533716 91.533716 40.981367 91.533716 91.533716S334.396 869.090884 283.84365 869.090884zM558.444798 762.301719 420.296415 762.301719c-7.589862-68.648496-65.782216-122.044614-136.452765-122.044614-70.671573 0-128.86188 53.396117-136.452765 122.044614L70.26532 762.301719 70.26532 378.584408c29.074176 29.673833 69.590961 48.094368 114.416889 48.094368 85.908602 0 156.016333-67.63133 159.999041-152.555511l213.763548 0L558.444798 762.301719zM954.290335 548.20662l-167.011758 0.51677c-16.851806 0-30.510898-13.661138-30.510898-30.510898L756.76768 487.700571c0-16.851806 13.660114-30.510898 30.510898-30.510898l75.791174-0.234337L954.290335 548.20662zM787.278577 869.090884c-50.55235 0-91.533716-40.981367-91.533716-91.533716s40.981367-91.533716 91.533716-91.533716c50.55235 0 91.533716 40.981367 91.533716 91.533716S837.830927 869.090884 787.278577 869.090884zM955.090561 762.301719l-31.359218 0c-7.589862-68.648496-65.782216-122.044614-136.452765-122.044614-70.671573 0-128.86188 53.396117-136.452765 122.044614l-46.614667 0L604.211145 380.551202l182.481078 0 30.860868 30.871101-45.530986 0c-33.70259 0-61.022819 27.320229-61.022819 61.022819l0 61.022819c0 33.701566 27.320229 61.022819 61.022819 61.022819l183.067432 0L955.089537 762.301719zM184.682209 319.889611l61.022819 0c12.637832 0 22.883173-10.245342 22.883173-22.883173s-10.245342-22.883173-22.883173-22.883173l-38.138622 0L207.566406 205.472721c0-12.638855-10.245342-22.883173-22.883173-22.883173-12.638855 0-22.883173 10.244318-22.883173 22.883173l0 91.533716C161.799036 309.643246 172.043355 319.889611 184.682209 319.889611z" fill="#333" p-id="3236"></path></svg>