<?xml version="1.0" standalone="no"?><!DOCTYPE svg PUBLIC "-//W3C//DTD SVG 1.1//EN" "http://www.w3.org/Graphics/SVG/1.1/DTD/svg11.dtd"><svg t="1531443310377" class="icon" style="" viewBox="0 0 1024 1024" version="1.1" xmlns="http://www.w3.org/2000/svg" p-id="2262" xmlns:xlink="http://www.w3.org/1999/xlink" width="48" height="48"><defs><style type="text/css"></style></defs><path d="M826.138645 1024H196.161687c-43.491506 0-78.784612-35.293107-78.784612-78.784612V236.453818c0-43.491506 35.293107-78.784612 78.784612-78.784613h85.983207C298.441711 111.978129 341.633275 78.984573 393.023238 78.984573h7.198594C416.518649 33.193517 459.710213 0.199961 511.100176 0.199961c51.389963 0 94.581527 32.993556 110.878344 78.784612h7.198594c51.389963 0 94.581527 32.993556 110.878344 78.784613h85.983206c43.491506 0 78.784612 35.293107 78.784613 78.784612v708.76157c0.09998 43.391525-35.193126 78.684632-78.684632 78.684632zM661.970709 175.065807c-7.098614-10.49795-19.09627-17.396602-32.693615-17.396602h-59.088459v-39.392306c0-32.593634-26.394845-59.088459-59.088459-59.088459S452.011716 85.583285 452.011716 118.276899v39.392306h-39.392306c-21.795743 0-39.392306 17.596563-39.392306 39.392306s17.596563 39.392306 39.392306 39.392307h216.557704c21.795743 0 39.392306-17.596563 39.392306-39.392307 0.09998-8.098418-2.399531-15.696934-6.598711-21.995704z m164.167936 61.388011h-85.983207c-16.296817 45.791056-59.488381 78.784612-110.878344 78.784612H393.023238c-51.389963 0-94.581527-32.993556-110.878344-78.784612h-85.983207v708.76157h630.076938V236.453818z m-531.496192 255.950009h433.115407c10.897872 0 19.696153 8.798282 19.696153 19.696153 0 10.897872-8.798282 19.696153-19.696153 19.696154H294.642453c-10.897872 0-19.696153-8.798282-19.696153-19.696154 0-10.897872 8.798282-19.696153 19.696153-19.696153z m0 118.176919h275.646163c10.897872 0 19.696153 8.798282 19.696153 19.696153s-8.798282 19.696153-19.696153 19.696153H294.642453c-10.897872 0-19.696153-8.798282-19.696153-19.696153s8.798282-19.696153 19.696153-19.696153z m0 118.076938h275.646163c10.897872 0 19.696153 8.798282 19.696153 19.696153 0 10.897872-8.798282 19.696153-19.696153 19.696153H294.642453c-10.897872 0-19.696153-8.798282-19.696153-19.696153 0-10.897872 8.798282-19.696153 19.696153-19.696153z" p-id="2263"></path></svg>